<svg xmlns="http://www.w3.org/2000/svg" width="512" height="512" viewBox="0 0 47.518 47.518" enable-background="new 0 0 47.518 47.518"><g fill="#fff"><path d="M9.07 32.26C7.9 31.1 6 31.1 4.83 32.26c-.57.57-.88 1.32-.88 2.12s.3 1.56.88 2.12c.58.6 1.35.88 2.12.88s1.54-.3 2.12-.88c.57-.56.88-1.32.88-2.12s-.3-1.55-.88-2.12zm-1.4 2.83c-.4.38-1.04.38-1.43 0-.18-.2-.3-.45-.3-.72 0-.27.1-.52.3-.7.2-.2.45-.3.7-.3s.52.1.72.3c.2.18.3.43.3.7 0 .27-.1.52-.3.7zM47.3 13.7c-.16-.75-.65-1.37-1.32-1.66-.45-.2-.62-.66-.84-1.4-.23-.75-.65-2.14-2.22-2-.53.05-1-.1-1.32-.42-.32-.32-.47-.8-.42-1.32.1-1.14-.25-2.17-1-2.92-.7-.7-1.67-1.05-2.78-1 0-.07-.02-.14-.03-.2-.15-.76-.44-2.32-2.62-2.6-.38-.13-1.43-.4-2.3.15-.43.26-.94.78-1.05 1.93l-.03 6.26h-10.2c-1.6 0-3.14.2-4.63.53-.53-2-1.42-3.92-2.68-5.66l-.5-.7-.75.38c-.18.1-4.66 2.35-5.9 6.24-.5 1.57-.4 3.17.28 4.76C2.8 17.92.18 23.4.18 29.5v18.02h17.87c5.65 0 10.95-2.2 14.94-6.2.47-.47.93-.98 1.36-1.5.44.03.9.06 1.4.06 2.8 0 6.4-.7 9.96-3.28l.7-.5-.4-.75c-.1-.23-2.68-5.3-7.05-6.1.12-.94.2-1.9.2-2.86V16.23l6.33.06h.08c.45-.08.86-.3 1.18-.64.48-.52.68-1.26.53-1.97zm-38.7-1c-.3-.93-.28-1.85 0-2.77.72-2.23 2.96-3.9 4.15-4.63.86 1.34 1.5 2.77 1.9 4.27-.92.3-1.8.66-2.63 1.07-.2.1-.42.2-.62.3-.28.15-.55.3-.82.47-.28.18-.55.34-.83.52-.24.16-.48.32-.72.5-.14.1-.3.18-.43.3zm30 18.5c2.53.48 4.4 3 5.2 4.3-2.88 1.85-5.73 2.37-8.02 2.38 1.3-2 2.23-4.2 2.8-6.5 0-.07.02-.12.03-.18zm6.7-16.9l-8.12-.07V26.4c0 1.15-.12 2.3-.32 3.4l-.02.14c-.06.3-.13.6-.2.9-.03.14-.06.26-.1.4-.65 2.5-1.82 4.87-3.43 6.92l-.38.5c-.36.43-.74.85-1.14 1.26-3.6 3.6-8.42 5.6-13.53 5.6H2.18V29.5c0-5.8 2.63-11 6.75-14.5 1.56-1.3 3.3-2.36 5.18-3.1.03-.02.04-.02.06-.03.62-.24 1.25-.46 1.9-.64 1.63-.45 3.34-.7 5.1-.7h12.2l.03-8.17c0-.22.07-.3.1-.33.1-.06.44-.03.67.05l.25.06c.8.1.85.32.98 1 .1.55.38 1.98 2.05 1.83.53-.05 1 .1 1.32.42.32.3.47.78.42 1.3-.12 1.15.24 2.2.98 2.93.73.73 1.74 1.08 2.84 1 .07.15.15.4.2.6.26.82.63 2.05 1.95 2.64.1.04.15.14.16.22 0 .03.02.13-.04.2zm.13.15v-.02l.6.55-.6-.53zM6.95 24.9v2c7.72 0 14 6.28 14 14h2c0-8.83-7.18-16-16-16zM10.2 21.64v2c7.73 0 14 6.28 14 14h2c0-8.82-7.17-16-16-16zM13.3 18.53v2c7.73 0 14 6.28 14 14h2c0-8.82-7.16-16-16-16zM16.57 15.28v2c7.72 0 14 6.28 14 14h2c0-8.83-7.18-16-16-16z"/></g></svg>