<svg xmlns="http://www.w3.org/2000/svg" width="512" height="512" viewBox="0 0 58.999 58.999" enable-background="new 0 0 58.999 58.999"><g fill="#fff"><path d="M56 29.24H40.96c.06-.38 0-.77-.2-1.12-.3-.54-.87-.88-1.5-.88H1.74c-.63 0-1.2.34-1.5.88-.32.55-.32 1.22 0 1.76l1.64 2.73c.35.6.54 1.28.54 1.98v.46c0 3.42 2.77 6.2 6.17 6.2h23.8c3.34 0 6.06-2.67 6.17-6H56c1.65 0 3-1.34 3-3s-1.35-3-3-3zm-23.6 10H8.6c-1.03 0-1.95-.38-2.68-1H17c.55 0 1-.45 1-1s-.45-1-1-1H4.6c-.08-.32-.14-.65-.16-1h8.84c.56 0 1-.45 1-1s-.44-1-1-1H4.25c-.13-.58-.35-1.14-.66-1.66l-1.4-2.34h36.6l-1.4 2.34c-.12.2-.23.42-.32.64-.06.13-.1.27-.15.4-.03.08-.06.16-.1.25-.04.18-.08.36-.12.54 0 .05 0 .1 0 .13-.05.2-.08.4-.1.6 0 0 0 .03 0 .04l-.07 1.07h.03c-.1 2.22-1.92 4-4.15 4zm23.6-6H38.83s0-.02 0-.03c.08-.2.18-.4.28-.58.02 0 .02 0 .02 0l.82-1.38H56c.55 0 1 .45 1 1s-.45 1-1 1zM38 52.24h-4.9c1.74-1.33 2.72-2.3 2.88-3.47.17-1.3-.63-2.32-1.96-4.03-.26-.34-.55-.7-.85-1.1l-.6-.8-.8.6c-1.82 1.38-2.84 2.36-3 3.57-.17 1.3.63 2.33 1.96 4.04.26.33.54.7.85 1.1l.07.1h-10.3c1.74-1.33 2.72-2.3 2.88-3.47.17-1.3-.63-2.32-1.96-4.03-.26-.34-.54-.7-.85-1.1l-.6-.8-.8.6c-1.82 1.38-2.84 2.36-3 3.57-.17 1.3.63 2.33 1.96 4.04.26.33.54.7.85 1.1l.07.1H9.35c1.74-1.33 2.72-2.3 2.88-3.47.17-1.3-.63-2.32-1.96-4.03-.26-.34-.54-.7-.85-1.1l-.6-.8-.8.6c-1.82 1.38-2.84 2.36-3 3.57-.17 1.3.63 2.33 1.96 4.04.26.33.54.7.85 1.1l.07.1H4c-.55 0-1 .45-1 1s.45 1 1 1h34c.55 0 1-.45 1-1s-.45-1-1-1zm-7.25-4.97c.05-.4.7-1.02 1.44-1.62.08.1.16.2.24.3.94 1.23 1.62 2.1 1.56 2.56-.06.4-.7 1.03-1.45 1.63-.08-.1-.16-.22-.24-.32-.93-1.2-1.6-2.07-1.55-2.53zm-11.75 0c.05-.4.7-1.02 1.44-1.62.1.1.17.2.25.3.93 1.23 1.6 2.1 1.55 2.56-.06.4-.7 1.03-1.45 1.63-.08-.1-.16-.22-.24-.32-.94-1.2-1.62-2.07-1.56-2.53zm-12 0c.05-.4.7-1.02 1.44-1.62.1.1.17.2.25.3.93 1.23 1.6 2.1 1.55 2.56-.06.4-.7 1.03-1.45 1.63-.08-.1-.16-.22-.24-.32-.94-1.2-1.62-2.07-1.56-2.53zM9.24 18.48c0 1.87.73 3.63 2.05 4.95.2.2.44.3.7.3s.5-.1.7-.3c.4-.4.4-1.02 0-1.4-.94-.96-1.46-2.2-1.46-3.55 0-1.33.52-2.6 1.47-3.53 1.33-1.32 2.06-3.08 2.06-4.95s-.73-3.63-2.05-4.95c-.38-.4-1.02-.4-1.4 0s-.4 1.02 0 1.4c.94.96 1.46 2.2 1.46 3.55 0 1.33-.52 2.6-1.47 3.53-1.33 1.33-2.06 3.1-2.06 4.96zM21.48 18.48c0 1.87.73 3.63 2.05 4.95.2.2.45.3.7.3s.52-.1.72-.3c.4-.4.4-1.02 0-1.4-.95-.96-1.47-2.2-1.47-3.55 0-1.33.52-2.6 1.47-3.53C26.27 13.63 27 11.87 27 10s-.73-3.63-2.05-4.95c-.4-.4-1.03-.4-1.42 0s-.4 1.02 0 1.4C24.48 7.42 25 8.66 25 10c0 1.33-.52 2.6-1.47 3.53-1.32 1.33-2.05 3.1-2.05 4.96z"/></g></svg>