<svg xmlns="http://www.w3.org/2000/svg" width="512" height="512" viewBox="0 0 53.43 53.43" enable-background="new 0 0 53.43 53.43"><g fill="#fff"><path d="M24.06 6c.06-1.1-.74-2.06-1.8-2.14-.52-.04-1 .14-1.4.47-.38.35-.63.86-.67 1.4-.07 1.1.73 2.05 1.8 2.12.04 0 .08 0 .13 0 .46 0 .9-.16 1.25-.47.4-.35.64-.85.68-1.4zm-2-.12h.04l.96.05-1-.04zM52.38 27.25l-3.22-6.33 1.33-.88.18-.15c.8-.88 1.2-2.06 1.07-3.25-.1-1.15-.7-2.17-1.6-2.82L44.4 9.26c.04-.16.06-.3.08-.36.43-1.2.33-2.54-.28-3.66-.6-1.07-1.6-1.82-2.74-2.07L30.2 1.4c-.44-.1-.9-.1-1.34-.04-.02 0-.04-.03-.06-.04-3.46-2.43-9.13-.78-9.37-.7L6.86 6.68C4.3 5.4 2.66 3.48 2.78 1.5 2.8.94 2.38.47 1.84.44 1.3.44.82.82.78 1.37c-.15 2.5 1.4 4.83 4 6.47-.26.28-.43.63-.46 1.03-.06.63.2 1.22.72 1.58 2.7 1.9 9.5 6.2 16.63 6.2.37 0 .75-.02 1.13-.05.22 0 .43-.04.64-.06l.08.08c.08.08.16.16.24.24l3.3 4.04c-.64.46-1.43.73-2.3.73-.54 0-1 .45-1 1s.46 1 1 1c1.48 0 2.82-.53 3.86-1.4.87.5 1.86.8 2.86.8.08 0 .17-.02.25-.02-1.08 1.6-2.9 2.63-4.96 2.63-.55 0-1 .45-1 1s.45 1 1 1c2.83 0 5.3-1.47 6.73-3.68l.57 1.86.07.18c.18.36.43.66.7.94l-.4 1.66-.02.18c-.06 1.13.4 2.22 1.26 2.9.25.2.53.36.8.47l-.66.8-.1.13c-.52.87-.6 1.92-.22 2.8.02.05.05.08.07.12-1.74.5-3.5.83-4.75.9-1.34.08-2.55 1.04-2.93 2.33-.3 1 0 1.97.76 2.53.86.63 2.28.52 4.5.25.84-.1 1.7-.2 2.2-.17.14.02.25.06.28.13s.03.2-.08.4c-.15.28-.35.63-.6 1.02-1.4 2.38-3.52 5.98-2.77 8.5.26.9 1.05 1.5 2.04 1.57.07 0 .13 0 .2 0 1.26 0 2.5-.8 3.02-1.98 1.04-2.33 4.04-5.87 7.2-9.6l.66-.8c.07-.07.28-.3.55-.58.22-.24.5-.53.77-.83.64 0 1.26-.2 1.8-.58.75-.54 1.23-1.4 1.32-2.3v-.08l-.17-4.5h.18l.26-.03c.98-.27 1.8-.96 2.25-1.9.44-.95.48-2.04.08-3zM48.94 15.4l.04.05c.44.3.72.82.78 1.4.06.58-.1 1.16-.48 1.6L38.9 25.28l-.18.15c-.14.15-.3.26-.45.35-.04.02-.08.04-.12.06-.15.07-.3.13-.47.15 0 0-.02 0-.03 0-.2.02-.37 0-.55-.03-.02 0-.04 0-.07 0-.18-.06-.35-.13-.52-.24l-.04-.04c-.2-.15-.38-.34-.5-.57L35 22.1c.12-.06.23-.12.34-.18 4.95-2.38 7.38-7.5 8.44-10.6l5.14 4.1zM6.54 9.07l.32-.15c1.65.7 3.56 1.15 5.62 1.3.02 0 .05 0 .07 0 .52 0 .96-.4 1-.93.04-.55-.38-1.03-.93-1.07-1.12-.07-2.18-.27-3.2-.54L20.08 2.5c1.44-.4 5.4-1.07 7.58.46.18.12.32.27.47.42.1.1.2.22.3.34.1.12.18.25.26.4.07.1.14.23.2.36.08.18.14.37.2.57.04.12.08.22.1.34.08.33.13.68.16 1.07v.1s0 .03.02.05c0 .02 0 .04 0 .05 0 .02 0 .04 0 .06.02.13.05.36.06.64 0 .1 0 .2 0 .3 0 .12 0 .23 0 .34 0 .02 0 .03 0 .04 0 .1 0 .22-.02.34 0 0 0 .02 0 .04 0 .1-.02.24-.04.36 0 .02 0 .03 0 .05-.02.12-.03.24-.05.37 0 .02 0 .04 0 .06-.02.12-.05.25-.08.38 0 .02 0 .05 0 .07-.04.13-.08.26-.1.4-.02.02-.03.04-.04.07-.03.12-.07.25-.12.37 0 .03-.02.07-.03.1-.05.12-.1.24-.15.36-.02.03-.04.07-.05.1-.06.12-.1.23-.18.35-.02.04-.04.08-.07.12-.06.1-.13.2-.2.32-.07.1-.15.2-.23.32-1.13 1.43-2.94 2.23-5.4 2.4-6.58.44-13.24-3.57-16.1-5.56zm23.4 11.6c.53-.88.83-1.92.83-3.03 0-.55-.44-1-1-1s-1 .45-1 1c0 .62-.15 1.2-.4 1.7L26 16.46c1.78-.66 3.1-1.8 3.94-3.43 0 0 0 0 0-.02.1-.14.2-.3.28-.43.02-.04.04-.07.06-.1.08-.15.15-.3.22-.45.02-.03.04-.07.05-.1.07-.15.14-.3.2-.45 0-.03.02-.07.03-.1.06-.15.1-.3.16-.45 0-.03.02-.06.03-.1.05-.15.1-.3.13-.45 0-.03 0-.05.02-.08.04-.16.07-.3.1-.46 0-.03 0-.05.02-.08.02-.15.05-.3.07-.44 0-.02.02-.04.02-.06.02-.15.04-.3.05-.43 0-.02 0-.04 0-.06.02-.14.03-.28.04-.4 0-.02 0-.04 0-.05 0-.14.02-.27.02-.4 0 0 0-.02 0-.03 0-.13 0-.26 0-.37 0-.13 0-.25 0-.35-.03-.44-.07-.75-.1-.88 0-.02 0-.04 0-.06 0-.25-.04-.5-.07-.72-.03-.16-.06-.3-.1-.46 0-.1-.02-.18-.05-.27-.04-.2-.1-.4-.17-.6 0-.02-.02-.05-.03-.1-.07-.2-.16-.4-.25-.58 0 0 0-.02 0-.03l10.42 1.63c.58.13 1.06.5 1.37 1.07.35.64.4 1.4.14 2.07l-.05.17c0 .03-.24 1.2-.85 2.83-.03.1-.06.18-.1.27-.03.08-.07.17-.1.25-.07.16-.14.34-.22.52 0 .02-.02.04-.03.06-1.05 2.4-2.87 5.44-5.83 7.25 0 0-.02.02-.03.03-.2.1-.4.22-.6.33 0-.13 0-.25 0-.37 0-.55-.44-1-1-1s-1 .45-1 1c0 .4-.04.8-.1 1.2-.15.03-.3.07-.44.1-.77.18-1.57.07-2.3-.26zm13.85 19.1l-.66.77c-3.26 3.86-6.35 7.5-7.5 10.1-.25.53-.83.84-1.27.8-.22-.02-.25-.1-.26-.15-.5-1.7 1.5-5.1 2.6-6.9.24-.43.46-.8.62-1.1.43-.77.45-1.62.07-2.32-.38-.67-1.07-1.1-1.9-1.15-.12 0-.23 0-.35 0-.63 0-1.4.1-2.22.2-.94.1-2.7.32-3.1.12-.02-.02-.1-.1-.03-.34.13-.42.58-.87 1.13-.9 1.74-.1 4.18-.6 6.45-1.37.03.02.06.03.1.04l6.86 1.62c-.27.3-.47.5-.55.6zm3.96-3.15c-.04.33-.22.63-.5.82-.14.1-.43.27-.8.2l-.02-.02-8.5-2c-.03-.02-.06-.03-.15-.07l-.12-.05c-.2-.1-.3-.28-.34-.4-.12-.3-.1-.62.06-.93L39 32.3l8.6-.1.16 4.4zm2.73-7.23c-.2.38-.52.67-.9.8h-.34l-6.55.08-4.37.04h-.25l-.03.03c-.4.1-.8.03-1.1-.22-.35-.27-.54-.68-.53-1.15l.24-1.02c.05 0 .1 0 .16.02.04 0 .08.03.12.03.06 0 .1 0 .16 0 0 .02.02.02.04.02.1 0 .2.02.3.02.04 0 .07 0 .1 0 .18-.02.34-.04.5-.06.1-.02.22-.05.33-.08.1-.02.2-.05.28-.1.1-.03.22-.07.33-.12.15-.07.3-.15.44-.24.06-.04.12-.08.18-.12.17-.12.34-.26.5-.42l7.38-4.86 3.07 6.03c.16.4.14.9-.06 1.32z"/></g></svg>